{
  "accessors": [
    {
      "bufferView": 2,
      "componentType": 5126,
      "count": 1462,
      "max": [
        2.1221699714660645,
        2.2760701179504395,
        0.09442000091075897
      ],
      "min": [
        -2.393589973449707,
        -1.9505300521850586,
        -1.733139991760254
      ],
      "type": "VEC3"
    },
    {
      "bufferView": 2,
      "byteOffset": 17544,
      "componentType": 5126,
      "count": 1462,
      "max": [
        0.9921432137489319,
        0.9961969256401062,
        0.9976599812507629
      ],
      "min": [
        -0.9921432137489319,
        -0.9961969256401062,
        -0.9976599812507629
      ],
      "type": "VEC3"
    },
    {
      "bufferView": 1,
      "componentType": 5126,
      "count": 1462,
      "max": [
        0.1298000067472458,
        0.9801099896430969
      ],
      "min": [
        0.022539999336004257,
        0.2633500099182129
      ],
      "type": "VEC2"
    },
    {
      "bufferView": 0,
      "componentType": 5125,
      "count": 2244,
      "type": "SCALAR"
    },
    {
      "bufferView": 2,
      "byteOffset": 35088,
      "componentType": 5126,
      "count": 165,
      "max": [
        2.4655799865722656,
        1.977180004119873,
        0.09444999694824219
      ],
      "min": [
        -0.1426199972629547,
        -0.21783000230789185,
        -5.043399810791016
      ],
      "type": "VEC3"
    },
    {
      "bufferView": 2,
      "byteOffset": 37068,
      "componentType": 5126,
      "count": 165,
      "max": [
        0.9802151322364807,
        0.8987398743629456,
        0.975096583366394
      ],
      "min": [
        -0.9802151322364807,
        -0.939441442489624,
        -0.9562383890151978
      ],
      "type": "VEC3"
    },
    {
      "bufferView": 1,
      "byteOffset": 11696,
      "componentType": 5126,
      "count": 165,
      "max": [
        0.9800199866294861,
        0.9773100018501282
      ],
      "min": [
        0.13987000286579132,
        0.04349000006914139
      ],
      "type": "VEC2"
    },
    {
      "bufferView": 0,
      "byteOffset": 8976,
      "componentType": 5125,
      "count": 252,
      "type": "SCALAR"
    },
    {
      "bufferView": 2,
      "byteOffset": 39048,
      "componentType": 5126,
      "count": 9,
      "max": [
        1.9863799810409546,
        4.901120185852051,
        -4.3957200050354
      ],
      "min": [
        -4.32850980758667,
        -1.4929900169372559,
        -6.52554988861084
      ],
      "type": "VEC3"
    },
    {
      "bufferView": 2,
      "byteOffset": 39156,
      "componentType": 5126,
      "count": 9,
      "max": [
        -0.06568989157676697,
        -0.28511953353881836,
        0.9562383890151978
      ],
      "min": [
        -0.06568989157676697,
        -0.28511953353881836,
        0.9562383890151978
      ],
      "type": "VEC3"
    },
    {
      "bufferView": 1,
      "byteOffset": 13016,
      "componentType": 5126,
      "count": 9,
      "max": [
        0.6273999810218811,
        0.9440400004386902
      ],
      "min": [
        0.34869998693466187,
        0.6401699781417847
      ],
      "type": "VEC2"
    },
    {
      "bufferView": 0,
      "byteOffset": 9984,
      "componentType": 5125,
      "count": 24,
      "type": "SCALAR"
    },
    {
      "bufferView": 2,
      "byteOffset": 39264,
      "componentType": 5126,
      "count": 151,
      "max": [
        3.146630048751831,
        5.753389835357666,
        -3.7121899127960205
      ],
      "min": [
        -5.488339900970459,
        -2.293910026550293,
        -9.092659950256348
      ],
      "type": "VEC3"
    },
    {
      "bufferView": 2,
      "byteOffset": 41076,
      "componentType": 5126,
      "count": 151,
      "max": [
        0.9382445812225342,
        0.9851301312446594,
        0.9812890291213989
      ],
      "min": [
        -0.9921103715896606,
        -0.9576119780540466,
        -0.9562383890151978
      ],
      "type": "VEC3"
    },
    {
      "bufferView": 1,
      "byteOffset": 13088,
      "componentType": 5126,
      "count": 151,
      "max": [
        0.6571400165557861,
        0.585669994354248
      ],
      "min": [
        0.09967999905347824,
        0.007290000095963478
      ],
      "type": "VEC2"
    },
    {
      "bufferView": 0,
      "byteOffset": 10080,
      "componentType": 5125,
      "count": 222,
      "type": "SCALAR"
    }
  ],
  "asset": {
    "extras": {
      "author": "Zac (https://sketchfab.com/thezacattacks)",
      "license": "CC-BY-SA-4.0 (http://creativecommons.org/licenses/by-sa/4.0/)",
      "source": "https://sketchfab.com/3d-models/peaceful-getaway-305e15a37020484bbe9f6d041d5829f7",
      "title": "Peaceful Getaway"
    },
    "generator": "Sketchfab-12.66.0",
    "version": "2.0"
  },
  "bufferViews": [
    {
      "buffer": 0,
      "byteLength": 10968,
      "name": "floatBufferViews",
      "target": 34963
    },
    {
      "buffer": 0,
      "byteLength": 14296,
      "byteOffset": 10968,
      "byteStride": 8,
      "name": "floatBufferViews",
      "target": 34962
    },
    {
      "buffer": 0,
      "byteLength": 42888,
      "byteOffset": 25264,
      "byteStride": 12,
      "name": "floatBufferViews",
      "target": 34962
    }
  ],
  "buffers": [
    {
      "byteLength": 68152,
      "uri": "scene.bin"
    }
  ],
  "materials": [
    {
      "doubleSided": true,
      "name": "water",
      "pbrMetallicRoughness": {
        "baseColorFactor": [
          0.0183117706,
          0.4764898717,
          0.8000000715,
          1.0
        ],
        "metallicFactor": 0.0,
        "roughnessFactor": 0.6
      }
    },
    {
      "doubleSided": true,
      "name": "island",
      "pbrMetallicRoughness": {
        "baseColorFactor": [
          0.2160113454,
          0.8000000715,
          0.1182797998,
          1.0
        ],
        "metallicFactor": 0.0,
        "roughnessFactor": 0.6
      }
    },
    {
      "doubleSided": true,
      "name": "leaves",
      "pbrMetallicRoughness": {
        "baseColorFactor": [
          0.0080930088,
          0.2265840769,
          0.0,
          1.0
        ],
        "metallicFactor": 0.0,
        "roughnessFactor": 0.6
      }
    },
    {
      "doubleSided": true,
      "name": "tree",
      "pbrMetallicRoughness": {
        "baseColorFactor": [
          0.8000000715,
          0.3625305295,
          0.0833458677,
          1.0
        ],
        "metallicFactor": 0.0,
        "roughnessFactor": 0.6
      }
    }
  ],
  "meshes": [
    {
      "name": "leaves.008_0",
      "primitives": [
        {
          "attributes": {
            "NORMAL": 1,
            "POSITION": 0,
            "TEXCOORD_0": 2
          },
          "indices": 3,
          "material": 2,
          "mode": 4
        }
      ]
    },
    {
      "name": "leaves.008_1",
      "primitives": [
        {
          "attributes": {
            "NORMAL": 5,
            "POSITION": 4,
            "TEXCOORD_0": 6
          },
          "indices": 7,
          "material": 3,
          "mode": 4
        }
      ]
    },
    {
      "name": "leaves.000_0",
      "primitives": [
        {
          "attributes": {
            "NORMAL": 9,
            "POSITION": 8,
            "TEXCOORD_0": 10
          },
          "indices": 11,
          "material": 0,
          "mode": 4
        }
      ]
    },
    {
      "name": "leaves.000_1",
      "primitives": [
        {
          "attributes": {
            "NORMAL": 13,
            "POSITION": 12,
            "TEXCOORD_0": 14
          },
          "indices": 15,
          "material": 1,
          "mode": 4
        }
      ]
    }
  ],
  "nodes": [
    {
      "children": [
        1
      ],
      "matrix": [
        1.0,
        0.0,
        0.0,
        0.0,
        0.0,
        2.220446049250313e-16,
        -1.0,
        0.0,
        0.0,
        1.0,
        2.220446049250313e-16,
        0.0,
        0.0,
        0.0,
        0.0,
        1.0
      ],
      "name": "Sketchfab_model"
    },
    {
      "children": [
        2,
        4,
        7
      ],
      "name": "Root"
    },
    {
      "children": [
        3
      ],
      "matrix": [
        1.0,
        0.0,
        0.0,
        0.0,
        0.0,
        0.8621900000000001,
        0.50659,
        0.0,
        0.0,
        -0.50659,
        0.8621900000000001,
        0.0,
        -0.4903100000000001,
        -9.743049999999998,
        10.576440000000002,
        1.0
      ],
      "name": "Sun"
    },
    {
      "name": "Sun"
    },
    {
      "children": [
        5,
        6
      ],
      "matrix": [
        -0.98022,
        0.18671000000000004,
        -0.06570000000000002,
        0.0,
        -0.16088000000000002,
        -0.9448900000000001,
        -0.28512000000000004,
        0.0,
        -0.11531000000000001,
        -0.26891000000000004,
        0.9562400000000001,
        0.0,
        -1.3337199999999998,
        1.0971,
        6.538320000000001,
        1.0
      ],
      "name": "leaves.008"
    },
    {
      "mesh": 0,
      "name": "leaves.008_0"
    },
    {
      "mesh": 1,
      "name": "leaves.008_1"
    },
    {
      "children": [
        8,
        9
      ],
      "matrix": [
        -0.98022,
        0.18671000000000004,
        -0.06570000000000002,
        0.0,
        -0.16088000000000002,
        -0.9448900000000001,
        -0.28512000000000004,
        0.0,
        -0.11531000000000001,
        -0.26891000000000004,
        0.9562400000000001,
        0.0,
        -1.3337199999999998,
        1.0971,
        6.538320000000001,
        1.0
      ],
      "name": "leaves.000"
    },
    {
      "mesh": 2,
      "name": "leaves.000_0"
    },
    {
      "mesh": 3,
      "name": "leaves.000_1"
    }
  ],
  "scene": 0,
  "scenes": [
    {
      "name": "Sketchfab_Scene",
      "nodes": [
        0
      ]
    }
  ]
}
