{
  "accessors": [
    {
      "bufferView": 2,
      "componentType": 5126,
      "count": 458,
      "max": [
        0.9801291823387146,
        1.953233242034912,
        1.0550638437271118
      ],
      "min": [
        -1.0747708082199097,
        -2.8347866535186768,
        -0.989032506942749
      ],
      "type": "VEC3"
    },
    {
      "bufferView": 2,
      "byteOffset": 5496,
      "componentType": 5126,
      "count": 458,
      "max": [
        0.9952229857444763,
        0.9922807216644287,
        0.9989688992500305
      ],
      "min": [
        -0.9984645843505859,
        -0.9997884035110474,
        -0.9987189769744873
      ],
      "type": "VEC3"
    },
    {
      "bufferView": 3,
      "componentType": 5126,
      "count": 458,
      "max": [
        0.9947015047073364,
        0.9830910563468933,
        0.9985336661338806,
        1.0
      ],
      "min": [
        -0.9990571141242981,
        -0.9870147109031677,
        -0.9875636100769043,
        1.0
      ],
      "type": "VEC4"
    },
    {
      "bufferView": 1,
      "componentType": 5126,
      "count": 458,
      "max": [
        0.9881343841552734,
        0.9896522760391235
      ],
      "min": [
        0.01251023355871439,
        0.013501778244972229
      ],
      "type": "VEC2"
    },
    {
      "bufferView": 0,
      "componentType": 5125,
      "count": 2448,
      "type": "SCALAR"
    }
  ],
  "asset": {
    "extras": {
      "author": "a_wilczek (https://sketchfab.com/a_wilczek)",
      "license": "CC-BY-4.0 (http://creativecommons.org/licenses/by/4.0/)",
      "source": "https://sketchfab.com/3d-models/stylized-mushroom-11-555a3d21e827470cab12d52e58761071",
      "title": "Stylized Mushroom (1.1)"
    },
    "generator": "Sketchfab-16.15.0",
    "version": "2.0"
  },
  "bufferViews": [
    {
      "buffer": 0,
      "byteLength": 9792,
      "name": "floatBufferViews",
      "target": 34963
    },
    {
      "buffer": 0,
      "byteLength": 3664,
      "byteOffset": 9792,
      "byteStride": 8,
      "name": "floatBufferViews",
      "target": 34962
    },
    {
      "buffer": 0,
      "byteLength": 10992,
      "byteOffset": 13456,
      "byteStride": 12,
      "name": "floatBufferViews",
      "target": 34962
    },
    {
      "buffer": 0,
      "byteLength": 7328,
      "byteOffset": 24448,
      "byteStride": 16,
      "name": "floatBufferViews",
      "target": 34962
    }
  ],
  "buffers": [
    {
      "byteLength": 31776,
      "uri": "scene.bin"
    }
  ],
  "extensionsUsed": [
    "KHR_materials_emissive_strength"
  ],
  "images": [
    {
      "uri": "textures/Default_OBJ.024_baseColor.png"
    },
    {
      "uri": "textures/Default_OBJ.024_metallicRoughness.png"
    },
    {
      "uri": "textures/Default_OBJ.024_emissive.png"
    },
    {
      "uri": "textures/Default_OBJ.024_normal.png"
    }
  ],
  "materials": [
    {
      "doubleSided": true,
      "emissiveFactor": [
        1.0,
        1.0,
        1.0
      ],
      "emissiveTexture": {
        "index": 2
      },
      "extensions": {
        "KHR_materials_emissive_strength": {
          "emissiveStrength": 1.6258460450103613
        }
      },
      "name": "Default_OBJ.024",
      "normalTexture": {
        "index": 3
      },
      "occlusionTexture": {
        "index": 1
      },
      "pbrMetallicRoughness": {
        "baseColorTexture": {
          "index": 0
        },
        "metallicFactor": 0.0,
        "metallicRoughnessTexture": {
          "index": 1
        }
      }
    }
  ],
  "meshes": [
    {
      "name": "grzyb6_LP_UVW_Default OBJ.024_0",
      "primitives": [
        {
          "attributes": {
            "NORMAL": 1,
            "POSITION": 0,
            "TANGENT": 2,
            "TEXCOORD_0": 3
          },
          "indices": 4,
          "material": 0,
          "mode": 4
        }
      ]
    }
  ],
  "nodes": [
    {
      "children": [
        1
      ],
      "matrix": [
        1.0,
        0.0,
        0.0,
        0.0,
        0.0,
        2.220446049250313e-16,
        -1.0,
        0.0,
        0.0,
        1.0,
        2.220446049250313e-16,
        0.0,
        0.0,
        0.0,
        0.0,
        1.0
      ],
      "name": "Sketchfab_model"
    },
    {
      "children": [
        2
      ],
      "matrix": [
        0.009999999776482582,
        0.0,
        0.0,
        0.0,
        0.0,
        0.0,
        0.009999999776482582,
        0.0,
        0.0,
        -0.009999999776482582,
        0.0,
        0.0,
        0.0,
        0.0,
        0.0,
        1.0
      ],
      "name": "3f1bede7dc7041b3bf69f1fe3d4afd3f.fbx"
    },
    {
      "children": [
        3
      ],
      "name": "RootNode"
    },
    {
      "children": [
        4
      ],
      "matrix": [
        9.954174995422363,
        0.0,
        0.0,
        0.0,
        0.0,
        9.95417499542223,
        1.6217410348194062e-06,
        0.0,
        0.0,
        -1.6217410348194062e-06,
        9.95417499542223,
        0.0,
        -0.11009520292282104,
        29.099929809570313,
        0.0848134458065033,
        1.0
      ],
      "name": "grzyb6_LP_UVW"
    },
    {
      "mesh": 0,
      "name": "grzyb6_LP_UVW_Default OBJ.024_0"
    }
  ],
  "samplers": [
    {
      "magFilter": 9729,
      "minFilter": 9987,
      "wrapS": 10497,
      "wrapT": 10497
    }
  ],
  "scene": 0,
  "scenes": [
    {
      "name": "Sketchfab_Scene",
      "nodes": [
        0
      ]
    }
  ],
  "textures": [
    {
      "sampler": 0,
      "source": 0
    },
    {
      "sampler": 0,
      "source": 1
    },
    {
      "sampler": 0,
      "source": 2
    },
    {
      "sampler": 0,
      "source": 3
    }
  ]
}
